<svg viewBox="0 0 300 60" width="300" height="60" xmlns="http://www.w3.org/2000/svg">
  <defs>
    <linearGradient id="cg1" x1="0%" y1="0%" x2="0%" y2="100%">
      <stop offset="0%" stop-color="#38bdf8"/>
      <stop offset="100%" stop-color="#0369a1"/>
    </linearGradient>
    <linearGradient id="cgArc" x1="0%" y1="0%" x2="100%" y2="0%">
      <stop offset="0%" stop-color="#22c55e"/>
      <stop offset="100%" stop-color="#4ade80"/>
    </linearGradient>
    <linearGradient id="cgText" x1="0%" y1="0%" x2="100%" y2="0%">
      <stop offset="0%" stop-color="#0369a1"/>
      <stop offset="45%" stop-color="#0ea5e9"/>
      <stop offset="55%" stop-color="#16a34a"/>
      <stop offset="100%" stop-color="#22c55e"/>
    </linearGradient>
  </defs>

  <path d="M6 36 C8 22 17 8 30 7 C43 8 52 22 54 36" fill="none" stroke="url(#cgArc)" stroke-width="5.5" stroke-linecap="round"/>
  <path d="M10 38 C12 24 19 14 30 13 C41 14 48 24 50 38" fill="none" stroke="#86efac" stroke-width="1.5" stroke-linecap="round" opacity="0.5"/>
  <path d="M9 36 C13 27 20 22 30 20 L30 46 C20 44 12 43 8 47 Z" fill="url(#cg1)"/>
  <path d="M51 36 C47 27 40 22 30 20 L30 46 C40 44 48 43 52 47 Z" fill="url(#cg1)" opacity="0.85"/>
  <path d="M8 47 C19 53 41 53 52 47 L52 49 C41 55 19 55 8 49 Z" fill="#0369a1"/>
  <rect x="29" y="20" width="2" height="26" fill="#0369a1" rx="1"/>
  <circle cx="30" cy="16" r="5" fill="#0ea5e9"/>
  <path d="M21 30 C24 23 27 21 30 19 C33 21 36 23 39 30" fill="none" stroke="#38bdf8" stroke-width="3" stroke-linecap="round"/>
  <path d="M21 30 C18 25 17 21 16 17" fill="none" stroke="#38bdf8" stroke-width="2.8" stroke-linecap="round"/>
  <path d="M39 30 C42 25 43 21 44 17" fill="none" stroke="#38bdf8" stroke-width="2.8" stroke-linecap="round"/>
  <circle cx="16" cy="16" r="2.5" fill="#22c55e"/>
  <circle cx="44" cy="16" r="2.5" fill="#22c55e"/>

  <text x="66" y="38" font-family="'Arial Black', 'Helvetica Neue', Arial, sans-serif" font-weight="900" font-size="30" fill="url(#cgText)" letter-spacing="1.5">MUVISA</text>
  <text x="68" y="50" font-family="Arial, sans-serif" font-size="7" fill="#94a3b8" letter-spacing="2.5">ASSESSORIA ACADÉMICA</text>
</svg>
